<svg width="56" height="48" viewBox="0 0 56 48" fill="none" xmlns="http://www.w3.org/2000/svg">
<path d="M20.5 27.5C26.025 27.5 30.5 23.025 30.5 17.5C30.5 11.975 26.025 7.5 20.5 7.5C14.975 7.5 10.5 11.975 10.5 17.5C10.5 23.025 14.975 27.5 20.5 27.5ZM20.5 12.5C23.25 12.5 25.5 14.75 25.5 17.5C25.5 20.25 23.25 22.5 20.5 22.5C17.75 22.5 15.5 20.25 15.5 17.5C15.5 14.75 17.75 12.5 20.5 12.5ZM20.5 32.5C13.825 32.5 0.5 35.85 0.5 42.5V47.5H40.5V42.5C40.5 35.85 27.175 32.5 20.5 32.5ZM5.5 42.5C6.05 40.7 13.775 37.5 20.5 37.5C27.25 37.5 35 40.725 35.5 42.5H5.5ZM35.7 12.625C37.8 15.575 37.8 19.4 35.7 22.35L39.9 26.575C44.95 21.525 44.95 13.9 39.9 8.4L35.7 12.625ZM48.175 0L44.1 4.075C51.025 11.625 51.025 22.975 44.1 30.925L48.175 35C57.925 25.275 57.95 10.125 48.175 0Z" fill="white"/>
</svg>
