<svg width="46" height="51" viewBox="0 0 46 51" fill="none" xmlns="http://www.w3.org/2000/svg">
<path d="M38 20.5L34.475 16.95L18 33.425L11.525 26.975L8 30.5L18 40.5L38 20.5ZM40.5 5.5H30.05C29 2.6 26.25 0.5 23 0.5C19.75 0.5 17 2.6 15.95 5.5H5.5C5.15 5.5 4.825 5.525 4.5 5.6C3.525 5.8 2.65 6.3 1.975 6.975C1.525 7.425 1.15 7.975 0.9 8.575C0.65 9.15 0.5 9.8 0.5 10.5V45.5C0.5 46.175 0.65 46.85 0.9 47.45C1.15 48.05 1.525 48.575 1.975 49.05C2.65 49.725 3.525 50.225 4.5 50.425C4.825 50.475 5.15 50.5 5.5 50.5H40.5C43.25 50.5 45.5 48.25 45.5 45.5V10.5C45.5 7.75 43.25 5.5 40.5 5.5ZM23 4.875C24.025 4.875 24.875 5.725 24.875 6.75C24.875 7.775 24.025 8.625 23 8.625C21.975 8.625 21.125 7.775 21.125 6.75C21.125 5.725 21.975 4.875 23 4.875ZM40.5 45.5H5.5V10.5H40.5V45.5Z" fill="white"/>
</svg>
