<svg width="50" height="48" viewBox="0 0 50 48" fill="none" xmlns="http://www.w3.org/2000/svg">
<path d="M25 12.825L27.425 18.55L28.6 21.325L31.6 21.575L37.775 22.1L33.075 26.175L30.8 28.15L31.475 31.1L32.875 37.125L27.575 33.925L25 32.325L22.425 33.875L17.125 37.075L18.525 31.05L19.2 28.1L16.925 26.125L12.225 22.05L18.4 21.525L21.4 21.275L22.575 18.5L25 12.825V12.825ZM25 0L17.975 16.575L0 18.1L13.65 29.925L9.55 47.5L25 38.175L40.45 47.5L36.35 29.925L50 18.1L32.025 16.575L25 0Z" fill="#00386B"/>
</svg>
